<?xml version="1.0" encoding="utf-8"?>
<svg width="300" height="60px" viewBox="12.49498901367187 26.6 475.01002197265626 96.8" style="background: rgba(0, 0, 0, 0);" preserveAspectRatio="xMidYMid" xmlns="http://www.w3.org/2000/svg">
  <defs>
    <linearGradient id="editing-gradient-gradient" x1="0" x2="1" y1="0.5" y2="0.5" gradientUnits="objectBoundingBox">
      <stop offset="0" stop-color="#c636c6"/>
      <stop offset="1" stop-color="#25b3b3"/>
    </linearGradient>
  </defs>
  <g transform="matrix(1.084175, 0, 0, 1.219413, -73.946489, -43.943352)" style="">
    <g transform="translate(81.95002341270447, 94.03499984741211)">
      <path d="M33.47-27.99L33.47 0L27.89 0L27.89-7.56L8.25-7.56L8.25 0L2.66 0L2.66-15.40L2.66-15.40Q2.66-18.78 3.82-21.61L3.82-21.61L3.82-21.61Q4.98-24.45 7.05-26.49L7.05-26.49L7.05-26.49Q9.11-28.53 11.92-29.67L11.92-29.67L11.92-29.67Q14.74-30.81 18.07-30.81L18.07-30.81L30.66-30.81L30.66-30.81Q31.24-30.81 31.75-30.59L31.75-30.59L31.75-30.59Q32.27-30.38 32.66-29.99L32.66-29.99L32.66-29.99Q33.04-29.61 33.26-29.09L33.26-29.09L33.26-29.09Q33.47-28.57 33.47-27.99L33.47-27.99ZM8.25-15.40L8.25-13.15L27.89-13.15L27.89-25.22L18.07-25.22L18.07-25.22Q17.81-25.22 16.98-25.15L16.98-25.15L16.98-25.15Q16.16-25.07 15.07-24.77L15.07-24.77L15.07-24.77Q13.99-24.47 12.78-23.85L12.78-23.85L12.78-23.85Q11.58-23.22 10.57-22.13L10.57-22.13L10.57-22.13Q9.56-21.03 8.91-19.39L8.91-19.39L8.91-19.39Q8.25-17.75 8.25-15.40L8.25-15.40ZM60.07-15.40L60.07 0L54.48 0L54.48-15.40L54.48-15.40Q54.48-16.50 53.90-17.07L53.90-17.07L53.90-17.07Q53.32-17.64 52.19-17.64L52.19-17.64L44.92-17.64L44.92 0L39.34 0L39.34-20.45L39.34-20.45Q39.34-21.03 39.55-21.54L39.55-21.54L39.55-21.54Q39.77-22.04 40.15-22.42L40.15-22.42L40.15-22.42Q40.54-22.79 41.06-23.01L41.06-23.01L41.06-23.01Q41.57-23.22 42.15-23.22L42.15-23.22L52.23-23.22L52.23-23.22Q53.39-23.22 54.72-22.82L54.72-22.82L54.72-22.82Q56.05-22.41 57.26-21.51L57.26-21.51L57.26-23.22L64.82-23.22L64.82-23.22Q65.61-23.22 66.49-23.04L66.49-23.04L66.49-23.04Q67.38-22.86 68.25-22.47L68.25-22.47L68.25-22.47Q69.12-22.09 69.91-21.47L69.91-21.47L69.91-21.47Q70.71-20.86 71.31-19.99L71.31-19.99L71.31-19.99Q71.91-19.12 72.27-17.98L72.27-17.98L72.27-17.98Q72.64-16.84 72.64-15.40L72.64-15.40L72.64 0L67.05 0L67.05-15.40L67.05-15.40Q67.05-16.50 66.50-17.07L66.50-17.07L66.50-17.07Q65.96-17.64 64.82-17.64L64.82-17.64L59.79-17.64L59.79-17.64Q60.07-16.61 60.07-15.40L60.07-15.40ZM101.75-15.53L101.75-7.69L101.75-7.69Q101.75-6.53 101.34-5.19L101.34-5.19L101.34-5.19Q100.93-3.85 100.02-2.70L100.02-2.70L100.02-2.70Q99.11-1.55 97.64-0.77L97.64-0.77L97.64-0.77Q96.16 0 94.06 0L94.06 0L83.98 0L83.98 0Q82.82 0 81.48-0.41L81.48-0.41L81.48-0.41Q80.14-0.82 78.99-1.73L78.99-1.73L78.99-1.73Q77.84-2.64 77.06-4.11L77.06-4.11L77.06-4.11Q76.29-5.59 76.29-7.69L76.29-7.69L76.29-7.69Q76.29-8.85 76.70-10.21L76.70-10.21L76.70-10.21Q77.11-11.56 78.02-12.71L78.02-12.71L78.02-12.71Q78.93-13.86 80.41-14.63L80.41-14.63L80.41-14.63Q81.88-15.40 83.98-15.40L83.98-15.40L94.06-15.40L94.06-10.08L83.98-10.08L83.98-10.08Q82.84-10.08 82.22-9.38L82.22-9.38L82.22-9.38Q81.60-8.68 81.60-7.65L81.60-7.65L81.60-7.65Q81.60-6.55 82.32-5.94L82.32-5.94L82.32-5.94Q83.04-5.33 84.03-5.33L84.03-5.33L94.06-5.33L94.06-5.33Q95.20-5.33 95.82-6.02L95.82-6.02L95.82-6.02Q96.44-6.70 96.44-7.73L96.44-7.73L96.44-15.53L96.44-15.53Q96.44-16.63 95.77-17.27L95.77-17.27L95.77-17.27Q95.09-17.92 94.06-17.92L94.06-17.92L81.79-17.92L81.79-23.22L94.06-23.22L94.06-23.22Q95.22-23.22 96.56-22.82L96.56-22.82L96.56-22.82Q97.90-22.41 99.05-21.50L99.05-21.50L99.05-21.50Q100.20-20.58 100.98-19.11L100.98-19.11L100.98-19.11Q101.75-17.64 101.75-15.53L101.75-15.53ZM130.50-15.53L130.50-7.69L130.50-7.69Q130.50-6.53 130.09-5.19L130.09-5.19L130.09-5.19Q129.68-3.85 128.77-2.70L128.77-2.70L128.77-2.70Q127.85-1.55 126.38-0.77L126.38-0.77L126.38-0.77Q124.91 0 122.80 0L122.80 0L112.73 0L112.73 0Q111.57 0 110.23-0.41L110.23-0.41L110.23-0.41Q108.88-0.82 107.73-1.73L107.73-1.73L107.73-1.73Q106.58-2.64 105.81-4.11L105.81-4.11L105.81-4.11Q105.04-5.59 105.04-7.69L105.04-7.69L105.04-7.69Q105.04-8.85 105.45-10.21L105.45-10.21L105.45-10.21Q105.85-11.56 106.77-12.71L106.77-12.71L106.77-12.71Q107.68-13.86 109.15-14.63L109.15-14.63L109.15-14.63Q110.62-15.40 112.73-15.40L112.73-15.40L122.80-15.40L122.80-10.08L112.73-10.08L112.73-10.08Q111.59-10.08 110.97-9.38L110.97-9.38L110.97-9.38Q110.34-8.68 110.34-7.65L110.34-7.65L110.34-7.65Q110.34-6.55 111.06-5.94L111.06-5.94L111.06-5.94Q111.78-5.33 112.77-5.33L112.77-5.33L122.80-5.33L122.80-5.33Q123.94-5.33 124.57-6.02L124.57-6.02L124.57-6.02Q125.19-6.70 125.19-7.73L125.19-7.73L125.19-15.53L125.19-15.53Q125.19-16.63 124.51-17.27L124.51-17.27L124.51-17.27Q123.84-17.92 122.80-17.92L122.80-17.92L110.54-17.92L110.54-23.22L122.80-23.22L122.80-23.22Q123.96-23.22 125.31-22.82L125.31-22.82L125.31-22.82Q126.65-22.41 127.80-21.50L127.80-21.50L127.80-21.50Q128.95-20.58 129.72-19.11L129.72-19.11L129.72-19.11Q130.50-17.64 130.50-15.53L130.50-15.53ZM161.00-12.89L161.00 0L155.42 0L155.42-12.89L155.42-12.89Q155.42-13.99 155.04-14.86L155.04-14.86L155.04-14.86Q154.67-15.73 154.02-16.35L154.02-16.35L154.02-16.35Q153.38-16.97 152.51-17.31L152.51-17.31L152.51-17.31Q151.64-17.64 150.63-17.64L150.63-17.64L140.85-17.64L140.85 0L135.27 0L135.27-20.45L135.27-20.45Q135.27-21.03 135.48-21.54L135.48-21.54L135.48-21.54Q135.70-22.04 136.08-22.42L136.08-22.42L136.08-22.42Q136.47-22.79 136.98-23.01L136.98-23.01L136.98-23.01Q137.50-23.22 138.08-23.22L138.08-23.22L150.67-23.22L150.67-23.22Q151.72-23.22 152.89-22.99L152.89-22.99L152.89-22.99Q154.06-22.75 155.21-22.23L155.21-22.23L155.21-22.23Q156.36-21.70 157.41-20.89L157.41-20.89L157.41-20.89Q158.45-20.09 159.25-18.94L159.25-18.94L159.25-18.94Q160.06-17.79 160.53-16.29L160.53-16.29L160.53-16.29Q161.00-14.78 161.00-12.89L161.00-12.89ZM186.46-30.81L186.46-18.22L206.08-18.22L206.08-30.81L211.66-30.81L211.66 0L206.08 0L206.08-12.59L186.46-12.59L186.46 0L180.88 0L180.88-30.81L186.46-30.81ZM242.69-15.40L242.69-7.84L242.69-7.84Q242.69-6.40 242.32-5.25L242.32-5.25L242.32-5.25Q241.96-4.10 241.36-3.23L241.36-3.23L241.36-3.23Q240.75-2.36 239.96-1.75L239.96-1.75L239.96-1.75Q239.16-1.14 238.29-0.75L238.29-0.75L238.29-0.75Q237.42-0.37 236.53-0.18L236.53-0.18L236.53-0.18Q235.64 0 234.85 0L234.85 0L224.77 0L224.77 0Q223.61 0 222.23-0.41L222.23-0.41L222.23-0.41Q220.86-0.82 219.69-1.75L219.69-1.75L219.69-1.75Q218.52-2.69 217.73-4.18L217.73-4.18L217.73-4.18Q216.95-5.67 216.95-7.84L216.95-7.84L216.95-15.40L216.95-15.40Q216.95-17.55 217.73-19.05L217.73-19.05L217.73-19.05Q218.52-20.54 219.69-21.47L219.69-21.47L219.69-21.47Q220.86-22.41 222.23-22.82L222.23-22.82L222.23-22.82Q223.61-23.22 224.77-23.22L224.77-23.22L234.85-23.22L234.85-23.22Q236.99-23.22 238.50-22.45L238.50-22.45L238.50-22.45Q240.00-21.68 240.93-20.51L240.93-20.51L240.93-20.51Q241.85-19.34 242.27-17.96L242.27-17.96L242.27-17.96Q242.69-16.59 242.69-15.40L242.69-15.40ZM237.10-7.84L237.10-15.36L237.10-15.36Q237.10-16.52 236.52-17.08L236.52-17.08L236.52-17.08Q235.94-17.64 234.85-17.64L234.85-17.64L224.81-17.64L224.81-17.64Q223.70-17.64 223.12-17.07L223.12-17.07L223.12-17.07Q222.54-16.50 222.54-15.40L222.54-15.40L222.54-7.84L222.54-7.84Q222.54-6.75 223.12-6.17L223.12-6.17L223.12-6.17Q223.70-5.59 224.81-5.59L224.81-5.59L234.85-5.59L234.85-5.59Q235.98-5.59 236.54-6.17L236.54-6.17L236.54-6.17Q237.10-6.75 237.10-7.84L237.10-7.84ZM272.70-15.40L272.70 7.26L267.12 7.26L267.12-15.40L267.12-15.40Q267.12-16.50 266.56-17.07L266.56-17.07L266.56-17.07Q266.00-17.64 264.86-17.64L264.86-17.64L254.78-17.64L254.78-17.64Q253.75-17.64 253.15-17.00L253.15-17.00L253.15-17.00Q252.55-16.37 252.55-15.40L252.55-15.40L252.55-7.84L252.55-7.84Q252.55-6.75 253.13-6.17L253.13-6.17L253.13-6.17Q253.71-5.59 254.83-5.59L254.83-5.59L264.86-5.59L264.86 0L254.78 0L254.78 0Q253.62 0 252.25-0.41L252.25-0.41L252.25-0.41Q250.87-0.82 249.70-1.75L249.70-1.75L249.70-1.75Q248.53-2.69 247.75-4.18L247.75-4.18L247.75-4.18Q246.96-5.67 246.96-7.84L246.96-7.84L246.96-15.40L246.96-15.40Q246.96-16.20 247.15-17.08L247.15-17.08L247.15-17.08Q247.33-17.96 247.71-18.83L247.71-18.83L247.71-18.83Q248.10-19.70 248.71-20.50L248.71-20.50L248.71-20.50Q249.33-21.29 250.20-21.89L250.20-21.89L250.20-21.89Q251.07-22.49 252.21-22.86L252.21-22.86L252.21-22.86Q253.34-23.22 254.78-23.22L254.78-23.22L264.86-23.22L264.86-23.22Q265.65-23.22 266.55-23.04L266.55-23.04L266.55-23.04Q267.44-22.86 268.31-22.47L268.31-22.47L268.31-22.47Q269.18-22.09 269.97-21.47L269.97-21.47L269.97-21.47Q270.77-20.86 271.37-19.99L271.37-19.99L271.37-19.99Q271.97-19.12 272.34-17.98L272.34-17.98L272.34-17.98Q272.70-16.84 272.70-15.40L272.70-15.40ZM303.21-23.22L303.21-2.81L303.21-2.81Q303.21-2.21 302.99-1.70L302.99-1.70L302.99-1.70Q302.78-1.18 302.40-0.81L302.40-0.81L302.40-0.81Q302.03-0.43 301.52-0.21L301.52-0.21L301.52-0.21Q301.02 0 300.44 0L300.44 0L287.80 0L287.80 0Q286.77 0 285.60-0.24L285.60-0.24L285.60-0.24Q284.43-0.47 283.29-1.00L283.29-1.00L283.29-1.00Q282.15-1.53 281.09-2.33L281.09-2.33L281.09-2.33Q280.03-3.14 279.23-4.29L279.23-4.29L279.23-4.29Q278.44-5.44 277.95-6.94L277.95-6.94L277.95-6.94Q277.47-8.44 277.47-10.33L277.47-10.33L277.47-23.22L283.06-23.22L283.06-10.33L283.06-10.33Q283.06-9.24 283.43-8.37L283.43-8.37L283.43-8.37Q283.81-7.50 284.45-6.88L284.45-6.88L284.45-6.88Q285.10-6.25 285.97-5.92L285.97-5.92L285.97-5.92Q286.84-5.59 287.85-5.59L287.85-5.59L297.62-5.59L297.62-23.22L303.21-23.22ZM333.44-15.53L333.44-15.53L333.44-15.53Q333.44-14.37 333.03-13.03L333.03-13.03L333.03-13.03Q332.62-11.69 331.71-10.54L331.71-10.54L331.71-10.54Q330.79-9.39 329.32-8.62L329.32-8.62L329.32-8.62Q327.85-7.84 325.75-7.84L325.75-7.84L315.67-7.84L315.67-13.15L325.75-13.15L325.75-13.15Q326.88-13.15 327.51-13.85L327.51-13.85L327.51-13.85Q328.13-14.54 328.13-15.58L328.13-15.58L328.13-15.58Q328.13-16.67 327.43-17.29L327.43-17.29L327.43-17.29Q326.73-17.92 325.75-17.92L325.75-17.92L315.67-17.92L315.67-17.92Q314.53-17.92 313.91-17.22L313.91-17.22L313.91-17.22Q313.29-16.52 313.29-15.49L313.29-15.49L313.29-7.69L313.29-7.69Q313.29-6.57 313.98-5.95L313.98-5.95L313.98-5.95Q314.68-5.33 315.71-5.33L315.71-5.33L325.75-5.33L325.75 0L315.67 0L315.67 0Q314.51 0 313.17-0.41L313.17-0.41L313.17-0.41Q311.82-0.82 310.67-1.73L310.67-1.73L310.67-1.73Q309.53-2.64 308.75-4.11L308.75-4.11L308.75-4.11Q307.98-5.59 307.98-7.69L307.98-7.69L307.98-15.53L307.98-15.53Q307.98-16.69 308.39-18.04L308.39-18.04L308.39-18.04Q308.79-19.38 309.71-20.53L309.71-20.53L309.71-20.53Q310.62-21.68 312.09-22.45L312.09-22.45L312.09-22.45Q313.56-23.22 315.67-23.22L315.67-23.22L325.75-23.22L325.75-23.22Q326.91-23.22 328.25-22.82L328.25-22.82L328.25-22.82Q329.59-22.41 330.74-21.50L330.74-21.50L330.74-21.50Q331.89-20.58 332.66-19.11L332.66-19.11L332.66-19.11Q333.44-17.64 333.44-15.53Z" fill="url(#editing-gradient-gradient)"/>
    </g>
  </g>
  <style>text {
  font-size: 64px;
  font-family: Arial Black;
  dominant-baseline: central;
  text-anchor: middle;
}</style>
</svg>